<?xml version="1.0" encoding="utf-8"?>
<!-- Generator: Adobe Illustrator 17.0.0, SVG Export Plug-In . SVG Version: 6.00 Build 0)  -->
<!DOCTYPE svg PUBLIC "-//W3C//DTD SVG 1.1//EN" "http://www.w3.org/Graphics/SVG/1.1/DTD/svg11.dtd" [
	<!ENTITY st0 "fill:#4C5D84;">
]>
<svg version="1.1" id="Layer_1" xmlns="http://www.w3.org/2000/svg" xmlns:xlink="http://www.w3.org/1999/xlink" x="0px" y="0px"
	 width="1000px" height="500px" viewBox="0 0 1000 500" style="enable-background:new 0 0 1000 500;" xml:space="preserve">
<g>
	<path style="&st0;" d="M619.7,237.5"/>
</g>
<g>
	<path style="&st0;" d="M545.7,296.7"/>
</g>
<g>
	<path style="&st0;" d="M659.9,385"/>
</g>
<g>
	<g>
		<path d="M163.8,27.6c35.6,0,65.4,12.5,89.4,37.4c24,24.9,36,55.6,36,92.1c0,36.1-12,66.7-35.9,91.9
			c-23.9,25.2-53.1,37.7-87.5,37.7c-34.9,0-64.3-12.5-88.3-37.6c-24-25-36-55.3-36-90.9c0-23.7,5.5-45.7,16.4-65.9
			c10.9-20.2,25.8-36.1,44.7-47.5C121.4,33.3,141.8,27.6,163.8,27.6z M164.8,51.6c-17.4,0-33.9,4.8-49.5,14.3
			c-15.6,9.5-27.7,22.3-36.5,38.4c-8.7,16.1-13.1,34.1-13.1,53.9c0,29.3,9.7,54.1,29,74.3c19.4,20.2,42.7,30.3,70,30.3
			c18.2,0,35.1-4.6,50.7-13.9c15.5-9.3,27.6-22,36.3-38.1c8.7-16.1,13-34,13-53.7c0-19.6-4.3-37.3-13-53.1s-20.9-28.5-36.7-38
			C199.3,56.3,182.6,51.6,164.8,51.6z"/>
		<path d="M340.5,33.8H364v222.9h90.4v23.8H340.5V33.8z"/>
		<path d="M496.1,280.5V33.8h5.1l156.4,189.1V33.8h23.2v246.7h-5.3L520.4,93.7v186.8H496.1z"/>
		<path d="M961.2,79.6l-18.5,14.9c-10.2-14-22.5-24.6-36.8-31.8c-14.3-7.2-30.1-10.8-47.2-10.8c-18.7,0-36.1,4.7-52.1,14.2
			c-16,9.4-28.4,22.1-37.1,38.1c-8.8,15.9-13.2,33.8-13.2,53.7c0,30.1,9.8,55.2,29.5,75.3c19.7,20.1,44.4,30.2,74.4,30.2
			c32.9,0,60.5-13.5,82.6-40.6l18.5,14.8c-11.7,15.7-26.3,27.8-43.9,36.3c-17.5,8.6-37.1,12.8-58.7,12.8
			c-41.1,0-73.6-14.4-97.3-43.1c-19.9-24.3-29.9-53.5-29.9-87.9c0-36.1,12.1-66.5,36.2-91.1c24.1-24.7,54.4-37,90.7-37
			c21.9,0,41.8,4.6,59.4,13.7C935.4,50.4,949.9,63.1,961.2,79.6z"/>
	</g>
	<g>
		<path style="&st0;" d="M208.6,188.8c-3.3-0.3-5.7-0.4-11.7,0.8c-1.3-0.1-4.5,0.2-6.4,0.6c-6.5,1.8-9.4,9.5-8.5,11.2
			c0.5,3.1,5.9,7.6,12.4,6.5c4.7-0.3,6.7-3.5,8.5-7.4c0,0,2.8-4.2,7.6-3.9c6.2,0.8,9.2,4.9,9.1,11c-0.1,3.2-15.7,22.9-38.6,26.6
			c-0.8,0.1-1.6,0.3-2.4,0.5c1.2,2.1,1.9,4.5,1.9,7.1c0,0.2,0,0.3,0,0.5c0.8-0.2,1.7-0.3,2.5-0.4c18.3-2.9,41.5-18.8,42.3-35.4
			C225.5,196.3,221.3,190.8,208.6,188.8z"/>
	</g>
	<g>
		<path style="&st0;" d="M156.9,445.6c0.7-7.4,1.4-12.5,6-20c-1.4-0.5-2.6-1.3-3.6-2.4c-2.7,4.8-5.2,13-5.2,21.8
			c0,14.4,9.5,33.2,11,34.7C160.1,464.6,156.4,454.3,156.9,445.6z"/>
	</g>
	<g>
		<path d="M286,316.8c7.8,0,14.4,2.8,19.7,8.3c5.3,5.5,7.9,12.4,7.9,20.5c0,8-2.6,14.8-7.9,20.4s-11.7,8.4-19.3,8.4
			c-7.7,0-14.1-2.8-19.4-8.3c-5.3-5.6-7.9-12.3-7.9-20.2c0-5.3,1.2-10.1,3.6-14.6c2.4-4.5,5.7-8,9.8-10.6
			C276.7,318.1,281.2,316.8,286,316.8z M286.3,322.1c-3.8,0-7.5,1.1-10.9,3.2c-3.4,2.1-6.1,5-8,8.5c-1.9,3.6-2.9,7.6-2.9,12
			c0,6.5,2.1,12,6.4,16.5c4.3,4.5,9.4,6.7,15.4,6.7c4,0,7.7-1,11.1-3.1s6.1-4.9,8-8.5c1.9-3.6,2.9-7.6,2.9-11.9
			c0-4.4-1-8.3-2.9-11.8s-4.6-6.3-8.1-8.4C293.9,323.2,290.2,322.1,286.3,322.1z"/>
		<path d="M323.5,332.4h4.9v18.9c0,4.6,0.2,7.8,0.7,9.5c0.7,2.5,2,4.4,4,5.9c2,1.4,4.3,2.2,7.1,2.2c2.7,0,5.1-0.7,7-2.1
			s3.2-3.2,4-5.5c0.5-1.6,0.7-4.9,0.7-10v-18.9h5v19.9c0,5.6-0.6,9.8-1.8,12.6c-1.2,2.8-3.1,5-5.6,6.7c-2.5,1.6-5.6,2.4-9.3,2.4
			s-6.8-0.8-9.3-2.4s-4.4-3.8-5.6-6.7c-1.2-2.9-1.8-7.2-1.8-12.9V332.4z"/>
		<path d="M407,316.8V373h-4.9v-7c-2.1,2.7-4.4,4.7-6.9,6s-5.4,2-8.4,2c-5.4,0-10-2.1-13.9-6.2s-5.7-9.2-5.7-15.2
			c0-5.8,1.9-10.8,5.8-15c3.9-4.1,8.5-6.2,14-6.2c3.1,0,6,0.7,8.5,2.1c2.5,1.4,4.8,3.5,6.7,6.4v-23.1H407z M387.3,336.4
			c-2.7,0-5.3,0.7-7.6,2.1c-2.3,1.4-4.2,3.4-5.5,6c-1.4,2.6-2.1,5.3-2.1,8.2c0,2.9,0.7,5.6,2.1,8.2c1.4,2.6,3.2,4.6,5.6,6.1
			s4.8,2.2,7.5,2.2c2.7,0,5.2-0.7,7.7-2.2c2.4-1.4,4.3-3.4,5.6-5.8s1.9-5.2,1.9-8.3c0-4.7-1.5-8.6-4.4-11.8S391.6,336.4,387.3,336.4
			z"/>
		<path d="M420.8,315.8c1.1,0,2.1,0.4,2.9,1.3c0.8,0.8,1.2,1.9,1.2,3.1c0,1.2-0.4,2.2-1.2,3c-0.8,0.8-1.8,1.3-2.9,1.3
			c-1.1,0-2-0.4-2.8-1.3c-0.8-0.8-1.2-1.9-1.2-3c0-1.2,0.4-2.2,1.2-3.1C418.8,316.2,419.7,315.8,420.8,315.8z M418.4,332.4h4.9V373
			h-4.9V332.4z"/>
		<path d="M434.4,332.4h4.9v7.3c2-2.8,4.1-4.9,6.5-6.2s5-2.1,7.8-2.1c2.9,0,5.4,0.8,7.6,2.3c2.2,1.5,3.8,3.6,4.9,6.2
			s1.6,6.7,1.6,12.2V373h-4.9v-19.3c0-4.7-0.2-7.8-0.5-9.4c-0.6-2.7-1.7-4.7-3.3-6.1c-1.6-1.4-3.7-2-6.3-2c-3,0-5.6,1-8,3.1
			c-2.4,2.1-3.9,4.7-4.7,7.8c-0.5,2-0.7,5.7-0.7,11V373h-4.9V332.4z"/>
		<path d="M512.3,332.4h4.9v32.3c0,5.7-0.5,9.8-1.4,12.5c-1.3,3.7-3.5,6.6-6.7,8.6c-3.2,2-7,3-11.5,3c-3.3,0-6.2-0.5-8.8-1.5
			c-2.6-1-4.7-2.3-6.4-4c-1.6-1.7-3.2-4.1-4.5-7.3h5.3c1.5,2.7,3.3,4.7,5.6,6c2.3,1.3,5.2,1.9,8.6,1.9c3.4,0,6.2-0.7,8.5-2
			c2.3-1.3,4-3,4.9-5c1-2,1.5-5.2,1.5-9.7v-2.1c-1.9,2.5-4.1,4.4-6.8,5.7c-2.7,1.3-5.5,2-8.5,2c-3.5,0-6.8-0.9-9.9-2.8
			c-3.1-1.9-5.5-4.3-7.2-7.5c-1.7-3.1-2.5-6.6-2.5-10.3s0.9-7.2,2.6-10.5c1.8-3.2,4.2-5.8,7.3-7.7c3.1-1.9,6.4-2.8,9.8-2.8
			c2.9,0,5.5,0.6,8,1.9c2.5,1.3,4.9,3.3,7.2,6.2V332.4z M497.7,336.4c-2.8,0-5.4,0.7-7.8,2.1c-2.4,1.4-4.3,3.4-5.6,5.9
			c-1.4,2.5-2,5.2-2,8.2c0,4.4,1.4,8.1,4.2,11c2.8,2.9,6.5,4.4,10.9,4.4c4.5,0,8.2-1.4,10.9-4.3c2.8-2.9,4.1-6.7,4.1-11.4
			c0-3.1-0.6-5.8-1.9-8.2c-1.3-2.4-3.1-4.3-5.4-5.7C502.9,337.1,500.4,336.4,497.7,336.4z"/>
		<path d="M550.3,318.2h5.2v49.5h19.9v5.3h-25.1V318.2z"/>
		<path d="M615.9,359.5l4.1,2.3c-1.4,2.8-2.9,5.1-4.7,6.9c-1.8,1.7-3.8,3.1-6,4c-2.2,0.9-4.8,1.4-7.6,1.4c-6.2,0-11.1-2.2-14.6-6.5
			c-3.5-4.3-5.3-9.2-5.3-14.7c0-5.1,1.5-9.7,4.5-13.8c3.8-5.1,8.8-7.7,15.2-7.7c6.5,0,11.7,2.6,15.6,7.9c2.8,3.7,4.2,8.3,4.2,13.9
			h-34.4c0.1,4.7,1.5,8.6,4.3,11.6s6.1,4.5,10.2,4.5c1.9,0,3.8-0.4,5.7-1.1c1.8-0.7,3.4-1.7,4.7-2.9
			C613,364.1,614.4,362.2,615.9,359.5z M615.9,348.6c-0.7-2.8-1.6-5-2.9-6.7s-2.9-3-5-4c-2.1-1-4.2-1.5-6.5-1.5
			c-3.8,0-7,1.3-9.7,3.8c-2,1.9-3.5,4.7-4.5,8.4H615.9z"/>
		<path d="M664.4,332.4h4.9v32.3c0,5.7-0.5,9.8-1.4,12.5c-1.3,3.7-3.5,6.6-6.7,8.6c-3.2,2-7,3-11.5,3c-3.3,0-6.2-0.5-8.8-1.5
			c-2.6-1-4.7-2.3-6.4-4c-1.6-1.7-3.2-4.1-4.5-7.3h5.3c1.5,2.7,3.3,4.7,5.6,6c2.3,1.3,5.2,1.9,8.6,1.9c3.4,0,6.2-0.7,8.5-2
			c2.3-1.3,4-3,4.9-5c1-2,1.5-5.2,1.5-9.7v-2.1c-1.9,2.5-4.1,4.4-6.8,5.7c-2.7,1.3-5.5,2-8.5,2c-3.5,0-6.8-0.9-9.9-2.8
			c-3.1-1.9-5.5-4.3-7.2-7.5c-1.7-3.1-2.5-6.6-2.5-10.3s0.9-7.2,2.6-10.5c1.8-3.2,4.2-5.8,7.3-7.7s6.4-2.8,9.8-2.8
			c2.9,0,5.5,0.6,8,1.9c2.5,1.3,4.9,3.3,7.2,6.2V332.4z M649.9,336.4c-2.8,0-5.4,0.7-7.8,2.1c-2.4,1.4-4.3,3.4-5.6,5.9s-2,5.2-2,8.2
			c0,4.4,1.4,8.1,4.2,11c2.8,2.9,6.5,4.4,10.9,4.4c4.5,0,8.2-1.4,10.9-4.3c2.8-2.9,4.1-6.7,4.1-11.4c0-3.1-0.6-5.8-1.9-8.2
			c-1.3-2.4-3.1-4.3-5.4-5.7C655.1,337.1,652.6,336.4,649.9,336.4z"/>
		<path d="M719,332.4V373h-4.9v-7c-2.1,2.7-4.4,4.7-6.9,6s-5.4,2-8.4,2c-5.4,0-10-2.1-13.9-6.2s-5.7-9.2-5.7-15.2
			c0-5.8,1.9-10.8,5.8-15c3.9-4.1,8.5-6.2,14-6.2c3.1,0,6,0.7,8.5,2.1c2.5,1.4,4.8,3.5,6.7,6.4v-7.5H719z M699.3,336.4
			c-2.7,0-5.3,0.7-7.6,2.1c-2.3,1.4-4.2,3.4-5.5,6c-1.4,2.6-2.1,5.3-2.1,8.2c0,2.9,0.7,5.6,2.1,8.2s3.2,4.6,5.6,6.1s4.8,2.2,7.5,2.2
			c2.7,0,5.2-0.7,7.7-2.2s4.3-3.4,5.6-5.8s1.9-5.2,1.9-8.3c0-4.7-1.5-8.6-4.4-11.8S703.5,336.4,699.3,336.4z"/>
		<path d="M730.2,316.8h4.9V373h-4.9V316.8z"/>
		<path d="M768,373v-54.8h1.1l34.4,42v-42h5.1V373h-1.2l-34.1-41.5V373H768z"/>
		<path d="M820.7,332.4h4.9v18.9c0,4.6,0.2,7.8,0.7,9.5c0.7,2.5,2,4.4,4,5.9c2,1.4,4.3,2.2,7.1,2.2s5.1-0.7,7-2.1
			c1.9-1.4,3.2-3.2,4-5.5c0.5-1.6,0.7-4.9,0.7-10v-18.9h5v19.9c0,5.6-0.6,9.8-1.8,12.6c-1.2,2.8-3.1,5-5.6,6.7s-5.6,2.4-9.3,2.4
			s-6.8-0.8-9.3-2.4s-4.4-3.8-5.6-6.7c-1.2-2.9-1.8-7.2-1.8-12.9V332.4z"/>
		<path d="M864.2,332.4h5v5.9c1.5-2.3,3.1-4.1,4.7-5.2s3.4-1.7,5.2-1.7c1.4,0,2.8,0.5,4.4,1.4l-2.6,4.4c-1-0.5-1.9-0.7-2.6-0.7
			c-1.6,0-3.2,0.7-4.7,2.1c-1.5,1.4-2.7,3.6-3.5,6.7c-0.6,2.3-0.9,7-0.9,14V373h-5V332.4z"/>
		<path d="M907.9,336.9l-3.2,3.5c-2.6-2.7-5.2-4.1-7.7-4.1c-1.6,0-3,0.6-4.1,1.7c-1.1,1.1-1.7,2.4-1.7,3.9c0,1.3,0.5,2.6,1.4,3.8
			c0.9,1.2,2.9,2.6,5.9,4.3c3.7,2,6.2,4,7.5,5.8c1.3,1.9,1.9,4,1.9,6.4c0,3.3-1.1,6.1-3.3,8.5c-2.2,2.3-5,3.5-8.3,3.5
			c-2.2,0-4.3-0.5-6.3-1.5c-2-1-3.7-2.4-5-4.2l3.1-3.7c2.5,3,5.2,4.5,8,4.5c2,0,3.7-0.7,5-2c1.4-1.3,2.1-2.9,2.1-4.7
			c0-1.5-0.5-2.8-1.4-4c-0.9-1.1-3-2.6-6.2-4.3c-3.5-1.9-5.8-3.8-7-5.6s-1.9-3.9-1.9-6.3c0-3.1,1-5.6,3-7.7c2-2,4.5-3.1,7.5-3.1
			C900.8,331.4,904.3,333.2,907.9,336.9z"/>
		<path d="M949.8,359.5l4.1,2.3c-1.4,2.8-2.9,5.1-4.7,6.9c-1.8,1.7-3.8,3.1-6,4c-2.2,0.9-4.8,1.4-7.6,1.4c-6.2,0-11.1-2.2-14.6-6.5
			c-3.5-4.3-5.3-9.2-5.3-14.7c0-5.1,1.5-9.7,4.5-13.8c3.8-5.1,8.8-7.7,15.2-7.7c6.5,0,11.7,2.6,15.6,7.9c2.8,3.7,4.2,8.3,4.2,13.9
			h-34.4c0.1,4.7,1.5,8.6,4.3,11.6s6.1,4.5,10.2,4.5c1.9,0,3.8-0.4,5.7-1.1c1.8-0.7,3.4-1.7,4.7-2.9
			C946.9,364.1,948.3,362.2,949.8,359.5z M949.8,348.6c-0.7-2.8-1.6-5-2.9-6.7s-2.9-3-5-4c-2.1-1-4.2-1.5-6.5-1.5
			c-3.8,0-7,1.3-9.7,3.8c-2,1.9-3.5,4.7-4.5,8.4H949.8z"/>
		<path d="M473.8,422.3l-4.1,3.3c-2.3-3.1-5-5.5-8.1-7.1c-3.2-1.6-6.6-2.4-10.4-2.4c-4.1,0-7.9,1-11.5,3.1c-3.5,2.1-6.2,4.9-8.2,8.5
			s-2.9,7.5-2.9,11.9c0,6.7,2.2,12.3,6.5,16.7s9.8,6.7,16.4,6.7c7.2,0,13.3-3,18.2-9l4.1,3.3c-2.6,3.5-5.8,6.2-9.7,8.1
			c-3.9,1.9-8.2,2.9-12.9,2.9c-9,0-16.2-3.2-21.4-9.6c-4.4-5.4-6.6-11.9-6.6-19.5c0-8,2.7-14.8,8-20.3s12-8.2,20-8.2
			c4.8,0,9.2,1,13.1,3C468.1,415.9,471.3,418.7,473.8,422.3z"/>
		<path d="M502.4,425.4c5.9,0,10.8,2.3,14.7,6.8c3.5,4.1,5.3,9,5.3,14.6c0,5.7-1.9,10.6-5.6,14.9c-3.7,4.2-8.5,6.4-14.4,6.4
			c-5.9,0-10.7-2.1-14.4-6.4c-3.7-4.2-5.6-9.2-5.6-14.9c0-5.6,1.8-10.5,5.3-14.6C491.6,427.7,496.5,425.4,502.4,425.4z M502.4,430.5
			c-4.1,0-7.6,1.6-10.5,4.8c-2.9,3.2-4.4,7.1-4.4,11.6c0,2.9,0.7,5.7,2,8.2c1.3,2.5,3.2,4.5,5.4,5.9c2.3,1.4,4.8,2.1,7.5,2.1
			c2.7,0,5.2-0.7,7.5-2.1s4.1-3.3,5.4-5.9s2-5.3,2-8.2c0-4.5-1.5-8.4-4.4-11.6C510,432.1,506.5,430.5,502.4,430.5z"/>
		<path d="M532.4,426.4h4.9v7.3c2-2.8,4.1-4.9,6.5-6.2s5-2.1,7.8-2.1c2.9,0,5.4,0.8,7.6,2.3c2.2,1.5,3.8,3.6,4.9,6.2
			s1.6,6.7,1.6,12.2V467h-4.9v-19.3c0-4.7-0.2-7.8-0.5-9.4c-0.6-2.7-1.7-4.7-3.3-6.1c-1.6-1.4-3.7-2-6.3-2c-3,0-5.6,1-8,3.1
			c-2.4,2.1-3.9,4.7-4.7,7.8c-0.5,2-0.7,5.7-0.7,11V467h-4.9V426.4z"/>
		<path d="M596.5,430.9l-3.2,3.5c-2.6-2.7-5.2-4.1-7.7-4.1c-1.6,0-3,0.6-4.1,1.7c-1.1,1.1-1.7,2.4-1.7,3.9c0,1.3,0.5,2.6,1.4,3.8
			c0.9,1.2,2.9,2.6,5.9,4.3c3.7,2,6.2,4,7.5,5.8c1.3,1.9,1.9,4,1.9,6.4c0,3.3-1.1,6.1-3.3,8.5c-2.2,2.3-5,3.5-8.3,3.5
			c-2.2,0-4.3-0.5-6.3-1.5c-2-1-3.7-2.4-5-4.2l3.1-3.7c2.5,3,5.2,4.5,8,4.5c2,0,3.7-0.7,5-2c1.4-1.3,2.1-2.9,2.1-4.7
			c0-1.5-0.5-2.8-1.4-4c-0.9-1.1-3-2.6-6.2-4.3c-3.5-1.9-5.8-3.8-7-5.6s-1.9-3.9-1.9-6.3c0-3.1,1-5.6,3-7.7c2-2,4.5-3.1,7.5-3.1
			C589.3,425.4,592.9,427.2,596.5,430.9z"/>
		<path d="M605.5,426.4h4.9v18.9c0,4.6,0.2,7.8,0.7,9.5c0.7,2.5,2,4.4,4,5.9c2,1.4,4.3,2.2,7.1,2.2s5.1-0.7,7-2.1
			c1.9-1.4,3.2-3.2,4-5.5c0.5-1.6,0.7-4.9,0.7-10v-18.9h5v19.9c0,5.6-0.6,9.8-1.8,12.6c-1.2,2.8-3.1,5-5.6,6.7s-5.6,2.4-9.3,2.4
			s-6.8-0.8-9.3-2.4s-4.4-3.8-5.6-6.7c-1.2-2.9-1.8-7.2-1.8-12.9V426.4z"/>
		<path d="M650.1,410.8h4.9V467h-4.9V410.8z"/>
		<path d="M670.5,411.4h4.9v15.1h7.8v4.5h-7.8v36h-4.9v-36h-6.7v-4.5h6.7V411.4z"/>
		<path d="M693.2,409.8c1.1,0,2.1,0.4,2.9,1.3s1.2,1.9,1.2,3.1c0,1.2-0.4,2.2-1.2,3s-1.8,1.3-2.9,1.3c-1.1,0-2-0.4-2.8-1.3
			c-0.8-0.8-1.2-1.9-1.2-3c0-1.2,0.4-2.2,1.2-3.1C691.2,410.2,692.1,409.8,693.2,409.8z M690.8,426.4h4.9V467h-4.9V426.4z"/>
		<path d="M706.9,426.4h4.9v7.3c2-2.8,4.1-4.9,6.5-6.2s5-2.1,7.8-2.1c2.9,0,5.4,0.8,7.6,2.3c2.2,1.5,3.8,3.6,4.9,6.2
			s1.6,6.7,1.6,12.2V467h-4.9v-19.3c0-4.7-0.2-7.8-0.5-9.4c-0.6-2.7-1.7-4.7-3.3-6.1c-1.6-1.4-3.7-2-6.3-2c-3,0-5.6,1-8,3.1
			c-2.4,2.1-3.9,4.7-4.7,7.8c-0.5,2-0.7,5.7-0.7,11V467h-4.9V426.4z"/>
		<path d="M784.7,426.4h4.9v32.3c0,5.7-0.5,9.8-1.4,12.5c-1.3,3.7-3.5,6.6-6.7,8.6c-3.2,2-7,3-11.5,3c-3.3,0-6.2-0.5-8.8-1.5
			c-2.6-1-4.7-2.3-6.4-4c-1.6-1.7-3.2-4.1-4.5-7.3h5.3c1.5,2.7,3.3,4.7,5.6,6c2.3,1.3,5.2,1.9,8.6,1.9c3.4,0,6.2-0.7,8.5-2
			c2.3-1.3,4-3,4.9-5c1-2,1.5-5.2,1.5-9.7v-2.1c-1.9,2.5-4.1,4.4-6.8,5.7c-2.7,1.3-5.5,2-8.5,2c-3.5,0-6.8-0.9-9.9-2.8
			c-3.1-1.9-5.5-4.3-7.2-7.5c-1.7-3.1-2.5-6.6-2.5-10.3s0.9-7.2,2.6-10.5c1.8-3.2,4.2-5.8,7.3-7.7s6.4-2.8,9.8-2.8
			c2.9,0,5.5,0.6,8,1.9c2.5,1.3,4.9,3.3,7.2,6.2V426.4z M770.2,430.4c-2.8,0-5.4,0.7-7.8,2.1c-2.4,1.4-4.3,3.4-5.6,5.9s-2,5.2-2,8.2
			c0,4.4,1.4,8.1,4.2,11c2.8,2.9,6.5,4.4,10.9,4.4c4.5,0,8.2-1.4,10.9-4.3c2.8-2.9,4.1-6.7,4.1-11.4c0-3.1-0.6-5.8-1.9-8.2
			c-1.3-2.4-3.1-4.3-5.4-5.7C775.3,431.1,772.8,430.4,770.2,430.4z"/>
	</g>
	<g>
		<rect x="244" y="303.6" width="714" height="0.8"/>
	</g>
</g>
<g>
	<g>
		<path style="&st0;" d="M173,412.2c5.4-8,17.6-30.5,16.9-45.6c-0.6-12.8-9.6-28.4-20-40.2l1-39.8c-3.2,0.2-6.1,0.2-9.7,0.1
			l0.8,31.6c-1.5-1.4-3.1-2.7-4.6-3.8c-14.2-13.5-17.5-23.3-17.1-36.3c1.7-12.1,7.9-20.9,16.4-27c-1.7-1.9-2.9-4.4-3.4-7.2
			c-14.2,9.2-21.7,23.1-20.9,36.9c1.1,18.4,14.1,35.2,21.9,40.5c2.4,1.8,5.2,4.2,7.9,6.8l2.1,81.1c-0.1-0.1-0.2-0.2-0.2-0.3
			c-2.8-2.7-19.9-25.3-16.6-47.7c1.1-6.7,6.8-15.5,13.7-23.4c-1.9-1-3.6-2.6-4.6-4.6c-8.2,10.6-14.6,22.8-15.1,33.2
			c-0.9,17.9,17.2,45.9,20.1,48.4c1.1,1.3,2.1,2.5,3,3.7l1.6,61.3l1.4-57.3c6.6,9.4,7.6,14.8,8.4,23.1c0.5,8.7-3.4,19-8.6,34.1
			c1.5-1.5,11.6-20.3,11.6-34.7c0.1-13.2-5.7-23.3-11.1-31.1l1.9-78c7.2,8.4,13.5,18,14.5,25.2c3.1,21.4-11.5,43.2-15.1,47.3
			C170.8,409.4,172,410.5,173,412.2z"/>
	</g>
	<g>
		<path style="&st0;" d="M314.1,144.8c-6.5,1.3-24.1,3.8-28.4,3.5c-8.1,0.6-40-6.7-46.9-9.4c-5.9-1.5-26.3-9.4-32.3-9.4
			c-6.7,0.3-16.9,2.8-20.9,14.9c-2.9,8.8-8.8,10.9-11.7,11.4l1.1-45.6c6.3-3.6,10.6-10.7,10.6-18.9c0-11.8-8.9-21.4-19.9-21.4
			s-19.9,9.6-19.9,21.4c0,8.2,4.3,15.3,10.6,18.9l1.2,45.8c-3.1-0.7-8.4-3-11.2-11.4c-4-12.1-14.2-14.7-20.9-15
			c-6.1,0.1-26.4,8-32.3,9.5c-6.9,2.8-38.8,10.1-46.9,9.5c-4.3,0.3-21.8-2.2-28.4-3.5c-0.4,3.1,4.4,11.2,9.9,13.1
			c1.7,1.5,12.6,4.4,16.6,3.9c1.7,2.5,4.4,4.4,11.2,4.9c2.2,0.1,8.3,0.6,12-1.2c0,2.9,3.6,7.3,9.3,7.9c4.3,0,6.3-0.4,10.7-2.2
			c2,4.5,6.6,7.5,11.5,7.6c3.6,0,7-0.7,10.4-2.7c2,2.7,3.3,4.6,9.9,5.4c6.8,0.5,10.5-1.1,14.3-4.3c4,4.6,7.9,5.6,14.1,5.4
			c2,0,7-0.9,10.3-1.5l1.4,54.1c-2.2-0.5-4.4-1-6.7-1.4c-29.7-4.5-40.5-22.5-40.6-26.6c-0.1-6.1,3-10.2,9.5-11c5.1-0.3,8,3.9,8,3.9
			c1.8,3.9,3.9,7.1,8.9,7.4c6.8,1.1,12.5-3.4,13-6.5c1-1.7-2.1-9.4-8.9-11.2c-2-0.3-5.3-0.6-6.7-0.6c-6.3-1.2-8.8-1.1-12.4-0.8
			c-13.3,2-17.7,7.5-17.5,17.6c0.8,16.6,25.2,32.5,44.5,35.4c3,0.4,6.1,1.1,9,1.9l0.5,18.9c3.8,0.2,7.5,0.2,10.9,0l0.3-14.3
			c11.3,5.9,20,15.7,22,29.8c0.4,12.9-3.1,22.7-18,36.3c-1.5,1.1-1.7,2.1-3.3,3.4c2.1,1.3,3,3.1,3.8,5.5c1.1-0.9,1.7-1.3,2.7-2
			c8.2-5.2,21.9-22.1,23-40.5c1-16.1-10-32.4-30.1-41.2l1.4-58.9c3.2,0.6,8.7,1.5,10.8,1.5c6.1,0.2,10.1-0.9,14.1-5.4
			c3.8,3.1,7.4,4.7,14.3,4.3c6.6-0.8,7.9-2.7,9.9-5.4c3.4,2,6.8,2.7,10.4,2.7c4.9-0.1,9.5-3.1,11.5-7.5c4.4,1.8,6.4,2.2,10.7,2.2
			c5.7-0.5,9.3-4.9,9.3-7.8c3.8,1.8,9.9,1.3,12,1.2c6.8-0.6,9.6-2.4,11.2-4.9c4.1,0.5,14.9-2.3,16.6-3.9
			C309.7,155.9,314.5,147.9,314.1,144.8z"/>
	</g>
</g>
</svg>
